<?xml version="1.0" standalone="no"?>
<!DOCTYPE svg PUBLIC "-//W3C//DTD SVG 20010904//EN"
 "http://www.w3.org/TR/2001/REC-SVG-20010904/DTD/svg10.dtd">
<svg version="1.0" xmlns="http://www.w3.org/2000/svg"
 width="500.000000pt" height="500.000000pt" viewBox="0 0 500.000000 500.000000"
 preserveAspectRatio="xMidYMid meet">
<metadata>
Created by potrace 1.14, written by Peter Selinger 2001-2017
</metadata>
<g transform="translate(0.000000,500.000000) scale(0.100000,-0.100000)"
fill="#000000" stroke="none">
<path d="M695 4994 c-94 -20 -162 -38 -172 -46 -7 -6 -13 -8 -13 -4 0 11 -153
-74 -200 -112 -99 -79 -186 -188 -230 -287 -13 -28 -26 -57 -30 -65 -4 -8 -16
-47 -26 -85 -18 -68 -19 -135 -19 -1880 0 -995 3 -1830 8 -1855 31 -187 143
-370 302 -495 63 -50 179 -109 270 -138 l70 -22 1810 -2 c1873 -2 1860 -2
1985 36 211 64 418 264 496 478 56 152 53 55 54 1974 0 1198 -3 1795 -11 1835
-40 225 -158 411 -342 536 -83 56 -167 92 -292 125 -30 8 -3623 14 -3660 7z"/>
</g>
</svg>
